<?xml version="1.0" encoding="UTF-8" standalone="no"?>
<svg
   width="1em"
   height="1em"
   version="1.1"
   xml:space="preserve"
   fill="currentColor"
   style="clip-rule:evenodd;fill-rule:evenodd;stroke-linejoin:round;stroke-miterlimit:2"
   id="svg46"
   viewBox="0 0 146.24001 146.24001"
   xmlns="http://www.w3.org/2000/svg"
   xmlns:svg="http://www.w3.org/2000/svg"><defs
   id="defs50" />
    <g
   id="path2"
   transform="matrix(0.264585,0,0,0.264585,-50.000658,-28.124301)">
        <path
   d="m 683.473,316.947 c -16.142,0 -29.978,5.766 -41.501,17.289 -11.523,11.532 -17.281,25.366 -17.281,41.508 v 142.374 c 0,16.141 5.758,29.977 17.281,41.5 11.532,11.143 25.369,16.713 41.501,16.713 16.151,0 29.797,-5.57 40.939,-16.713 11.523,-11.523 17.281,-25.359 17.281,-41.5 V 375.744 c 0,-16.151 -5.758,-29.985 -17.281,-41.508 -11.151,-11.523 -24.798,-17.289 -40.939,-17.289 z"
   id="path320" /><path
   d="m 682.904,188.983 c -16.141,0 -29.978,5.765 -41.5,17.288 -11.143,11.142 -16.713,24.783 -16.713,40.925 0,16.142 5.57,29.978 16.713,41.501 11.522,11.142 25.359,16.713 41.5,16.713 16.142,0 29.976,-5.571 41.508,-16.713 11.523,-11.523 17.281,-25.359 17.281,-41.501 0,-16.142 -5.758,-29.783 -17.281,-40.925 -11.532,-11.523 -25.366,-17.288 -41.508,-17.288 z"
   id="path308" /><path
   d="m 256.418,188.976 c -7.86,-0.032 -15.66,1.332 -23.039,4.037 -13.071,4.6 -23.846,12.875 -32.288,24.789 -8.071,11.527 -12.114,24.393 -12.114,38.607 V 508.89 c 0,18.442 6.543,34.4 19.599,47.842 13.456,13.071 29.414,19.599 47.842,19.599 18.841,0 34.786,-6.528 47.856,-19.584 13.456,-13.456 20.167,-29.415 20.167,-47.857 v -45.907 c 0.143,-9.943 10.383,-7.328 15.569,0 9.685,16.784 30.241,31.207 54.183,31.122 v 0.014 c 23.926,-0.1 43.812,-11.923 54.182,-31.136 3.929,-4.629 15.002,-12.528 16.145,0 v 45.907 c 0,18.442 6.527,34.4 19.584,47.842 13.47,13.071 29.407,19.599 47.849,19.599 18.827,0 34.786,-6.528 47.856,-19.584 13.456,-13.456 20.168,-29.415 20.168,-47.857 V 256.409 c 0,-14.214 -4.225,-27.08 -12.668,-38.607 -8.085,-11.928 -18.656,-20.189 -31.712,-24.789 -7.685,-2.699 -15.369,-4.037 -23.054,-4.037 -20.755,0 -38.242,8.07 -52.47,24.212 l -68.437,80.093 c -1.529,1.157 -6.63,9.966 -17.458,9.966 -10.799,0 -15.31,-8.808 -16.853,-9.951 L 308.297,213.188 C 294.47,197.046 277.173,188.976 256.418,188.976 Z"
   id="path43" />
    </g>
</svg>
